# xmcd
#
# Track frame offsets: 
#        150
#        20152
#        45716
#        68038
#        88211
#        106311
#        123450
#        150759
#        175655
#        201944
#        233046
#        271240
#
# Disc length: 4143 seconds
#
# Revision: 0
# Processed by: cddbd v1.5.2PL0 Copyright (c) Steve Scherf et al.
# Submitted via: ExactAudioCopy v0.99pb5
#
DISCID=9a102d0c
DTITLE=West Side Blues Band - Even Parakeers Get The Blues
DYEAR=2009
DGENRE=Blues
TTITLE0=Boogie Man
TTITLE1=Clean Whiskey
TTITLE2=Big Leg Woman
TTITLE3=West Texas Blues
TTITLE4=Ramona 
TTITLE5=Goin' To Louisiana
TTITLE6=Foolish Man
TTITLE7=Silk Sheet Boogie
TTITLE8=Long Tall Baby
TTITLE9=KMP Live
TTITLE10=Big Baby
TTITLE11=Slow Blues Stew
EXTD=
EXTT0=
EXTT1=
EXTT2=
EXTT3=
EXTT4=
EXTT5=
EXTT6=
EXTT7=
EXTT8=
EXTT9=
EXTT10=
EXTT11=
PLAYORDER=
